<?xml version="1.0" encoding="UTF-8"?><svg id="Layer_2" xmlns="http://www.w3.org/2000/svg" viewBox="0 0 109.59 124.82"><defs><style>.cls-1,.cls-2{fill:none;}.cls-1,.cls-2,.cls-3{stroke-miterlimit:10;}.cls-1,.cls-3{stroke:#000;stroke-width:3.38px;}.cls-2{stroke:#cb2cff;stroke-width:8.1px;}.cls-3{fill:#fff;}</style></defs><g id="Livello_1"><g><path class="cls-2" d="M48.84,71.81l-.77,4.02c.79,0,1.58,0,2.38,0,2.74,0,5.36-.04,7.88-.09l24.82-34.98h-25.26l3.3-27.66L26.37,54.89h25.71l-3.24,16.92"/><g><path class="cls-3" d="M107.9,70.03c0,29.33-23.78,53.1-53.1,53.1S1.69,99.36,1.69,70.03H107.9Z"/><path class="cls-1" d="M81.28,70.11c0,29.33-15.38,53.02-26.48,53.02-11.68,0-26.48-23.55-26.48-52.87"/><line class="cls-1" x1="8.21" y1="95.69" x2="101.3" y2="95.69"/><line class="cls-1" x1="54.79" y1="70.34" x2="54.79" y2="123.13"/></g></g></g></svg>