<?xml version="1.0" encoding="UTF-8" standalone="no"?>
<svg
   id="Layer_2"
   viewBox="0 0 106.3 110.09"
   version="1.1"
   sodipodi:docname="GWF-icon-arrow-blue_45.svg"
   inkscape:version="1.4 (e7c3feb100, 2024-10-09)"
   xmlns:inkscape="http://www.inkscape.org/namespaces/inkscape"
   xmlns:sodipodi="http://sodipodi.sourceforge.net/DTD/sodipodi-0.dtd"
   xmlns="http://www.w3.org/2000/svg"
   xmlns:svg="http://www.w3.org/2000/svg">
  <sodipodi:namedview
     id="namedview1"
     pagecolor="#ffffff"
     bordercolor="#000000"
     borderopacity="0.25"
     inkscape:showpageshadow="2"
     inkscape:pageopacity="0.0"
     inkscape:pagecheckerboard="0"
     inkscape:deskcolor="#d1d1d1"
     inkscape:zoom="4.7273195"
     inkscape:cx="51.614874"
     inkscape:cy="86.095301"
     inkscape:window-width="1800"
     inkscape:window-height="1150"
     inkscape:window-x="0"
     inkscape:window-y="0"
     inkscape:window-maximized="0"
     inkscape:current-layer="Layer_2" />
  <defs
     id="defs1">
    <style
       id="style1">.cls-1{fill:#06f;}</style>
  </defs>
  <g
     id="Livello_1"
     transform="rotate(44.23947,67.397259,60.443091)">
    <g
       id="g1"
       transform="rotate(0.91043894,52.756956,65.784082)">
      <path
         d="m 0,55.3 v 1.64 c 0,29.31 23.84,53.15 53.15,53.15 29.31,0 53.15,-23.84 53.15,-53.15 V 55.3 Z m 51.51,28.17 v 23.14 C 45.4,105.25 37.99,96.61 33.4,83.47 Z M 32.35,80.19 C 30.46,73.8 29.25,66.51 29.12,58.58 h 22.39 v 21.61 z m 22.43,26.4 V 83.47 h 17.88 c -1.16,3.21 -2.52,6.28 -4.08,9.15 -4.17,7.65 -9.41,12.88 -13.8,13.97 z m 0,-26.4 V 58.58 h 22.39 c -0.14,7.44 -1.31,14.8 -3.4,21.61 z M 25.84,58.58 c 0.13,7.74 1.28,15.06 3.15,21.61 H 9.05 C 5.61,73.7 3.56,66.36 3.3,58.58 Z m -14.9,24.89 h 19.08 c 3.33,9.97 8.29,17.89 13.58,22.42 C 29.88,103.22 18.16,94.91 10.95,83.47 Z m 51.54,22.46 C 67.76,101.38 72.74,93.39 76.12,83.47 H 95.36 C 88.11,94.97 76.29,103.3 62.48,105.93 Z M 97.25,80.19 H 77.16 C 79.1,73.58 80.3,66.24 80.45,58.58 h 22.54 c -0.25,7.78 -2.31,15.12 -5.75,21.61 z"
         id="path1" />
      <polygon
         class="cls-1"
         points="90.86,38.01 52.85,0 14.95,37.91 20.5,43.46 49.06,14.9 49.06,55.3 56.92,55.3 56.92,15.18 85.3,43.56 "
         id="polygon1" />
    </g>
  </g>
</svg>
