<svg width="346" height="380" viewBox="0 0 346 380" fill="none" xmlns="http://www.w3.org/2000/svg">
<path d="M1.19531 202.883L1.2164 208.184C1.59329 302.911 78.972 379.654 173.728 379.277C268.484 378.9 345.25 301.544 344.873 206.816L344.852 201.516L1.19531 202.883ZM168.084 293.264L168.381 368.051C148.611 363.734 124.544 335.905 109.536 293.497L168.084 293.264ZM106.099 282.91C99.9071 262.282 95.9015 238.737 95.3793 213.109L167.764 212.821L168.042 282.663L106.099 282.91ZM178.953 367.944L178.655 293.222L236.459 292.992C232.751 303.381 228.393 313.321 223.387 322.617C210.004 347.394 193.131 364.365 178.953 367.944ZM178.613 282.621L178.335 212.779L250.72 212.491C250.363 236.539 246.675 260.341 240.006 282.377L178.613 282.621ZM84.7754 213.152C85.2952 238.165 89.1072 261.808 95.2369 282.953L30.773 283.209C19.5684 262.278 12.8466 238.583 11.906 213.442L84.7754 213.152ZM36.9254 293.786L98.6089 293.54C109.503 325.72 125.64 351.253 142.8 365.826C98.4103 357.373 60.414 330.666 36.9577 293.786L36.9254 293.786ZM203.837 365.712C220.849 350.939 236.846 325.052 247.678 292.947L309.878 292.7C286.588 329.96 248.482 357.034 203.87 365.712L203.837 365.712ZM315.914 282.075L250.965 282.333C257.152 260.945 260.937 237.208 261.324 212.449L334.193 212.159C333.485 237.307 326.919 261.056 315.882 282.075L315.914 282.075Z" fill="black"/>
<path d="M208.456 202.059L339.164 153.447L330.341 129.662L210.188 174.321L295.821 58.5022L275.393 43.3932L186.256 163.977L185.608 1.12061L160.197 1.22171L160.853 166.115L70.7193 44.3044L50.3147 59.382L135.021 173.909L14.9053 130.335L6.2391 154.222L138.916 202.335L208.456 202.059Z" fill="#00FF00"/>
</svg>
