<?xml version="1.0" encoding="UTF-8"?><svg id="Layer_2" xmlns="http://www.w3.org/2000/svg" viewBox="0 0 109.59 124.29"><defs><style>.cls-1,.cls-2{fill:none;}.cls-1,.cls-2,.cls-3{stroke-miterlimit:10;}.cls-1,.cls-3{stroke:#000;stroke-width:3.38px;}.cls-2{stroke:#fa0;stroke-width:8.1px;}.cls-3{fill:#fff;}</style></defs><g id="Livello_1"><g><g><g><line class="cls-2" x1="56.12" y1="69.21" x2="56.12" y2="44.63"/><line class="cls-2" x1="56.53" y1="66.94" x2="74.3" y2="55.82"/><line class="cls-2" x1="53.92" y1="62.05" x2="41.11" y2="54.91"/></g><path class="cls-2" d="M65.51,28.21c0,12.34-9.23,22.24-9.23,22.24,0,0-8.82-9.73-8.82-22.24S56.28,5.97,56.28,5.97c0,0,9.23,9.42,9.23,22.24Z"/><path class="cls-2" d="M89.96,54.37c-9.11,6.55-21.33,4.99-21.33,4.99,0,0,2.5-11.68,11.74-18.32,8.93-6.42,21.11-5.3,21.11-5.3,0,0-2.05,11.82-11.52,18.63Z"/><path class="cls-2" d="M21.83,54.6c-9.77-5.21-13.72-16.72-13.72-16.72,0,0,11.43-2.88,21.35,2.42,9.58,5.11,13.89,16.39,13.89,16.39,0,0-11.36,3.33-21.52-2.09Z"/></g><g><path class="cls-3" d="M107.9,69.5c0,29.33-23.78,53.1-53.1,53.1S1.69,98.83,1.69,69.5H107.9Z"/><path class="cls-1" d="M81.28,69.58c0,29.33-15.38,53.02-26.48,53.02-11.68,0-26.48-23.55-26.48-52.87"/><line class="cls-3" x1="8.21" y1="95.16" x2="101.3" y2="95.16"/><line class="cls-1" x1="54.79" y1="69.8" x2="54.79" y2="122.6"/></g></g></g></svg>