<?xml version="1.0" encoding="UTF-8"?><svg id="Livello_1" xmlns="http://www.w3.org/2000/svg" viewBox="0 0 500 135"><defs><style>.cls-1{fill:#fff;}.cls-2{fill:#828282;}</style></defs><g><path class="cls-1" d="M180.9,41.64h-13.29v-4.44h18.28v21.91h-4.66v-9.07h-.11c-1.59,4.81-5.56,9.69-12.38,9.69-10.84,0-17.83-9.75-17.83-21.91s6.7-21.91,18.06-21.91c9.82,0,15.5,6.97,16.52,14.32h-5.05c-.79-5.06-4.2-9.87-11.13-9.87-8.52,0-13.12,7.28-13.12,17.46s4.77,17.46,13.29,17.46c7.5,0,11.41-5.37,11.41-11.85v-1.79Z"/><path class="cls-1" d="M194.73,16.52h12.15c9.48,0,15.05,4.38,15.05,12.28,0,6.05-3.24,10.06-9.03,11.6l9.77,18.7h-5.62l-9.37-17.96h-8.06v17.96h-4.88V16.52Zm4.88,4.44v15.74h7.83c6.08,0,9.2-2.78,9.2-7.9s-3.12-7.84-9.2-7.84h-7.83Z"/><path class="cls-1" d="M229.82,16.52h22.54v4.44h-17.66v14.07h17.15v4.44h-17.15v15.18h18.11v4.44h-22.99V16.52Z"/><path class="cls-1" d="M260.14,16.52h22.54v4.44h-17.66v14.07h17.15v4.44h-17.15v15.18h18.11v4.44h-23V16.52Z"/><path class="cls-1" d="M321.12,59.1h-10.05l-15.73-42.33V59.1h-4.88V16.52h10.05l15.73,42.33V16.52h4.88V59.1Z"/><path class="cls-1" d="M377.89,16.52l7.44,42.33,9.2-42.33h4.83l-9.26,42.58h-9.54l-7.44-42.33-7.44,42.33h-9.54l-9.25-42.58h4.83l9.2,42.33,7.44-42.33h9.54Z"/><path class="cls-1" d="M405.45,16.52h22.54v4.44h-17.66v14.07h17.15v4.44h-17.15v15.18h18.11v4.44h-22.99V16.52Z"/><path class="cls-1" d="M454.23,36.89v.12c6.36,.56,8.91,4.57,8.91,9.93,0,7.78-4.54,12.16-14.02,12.16h-13.34V16.52h11.24c9.48,0,14.25,3.58,14.25,11.29,0,5-3.07,8.08-7.04,9.07Zm-13.57-15.92v13.88h6.13c6.08,0,9.2-2.34,9.2-7.03s-2.33-6.85-8.4-6.85h-6.93Zm0,18.33v15.37h9.03c6.07,0,8.18-2.9,8.18-7.71s-3.12-7.65-9.2-7.65h-8.01Z"/><path class="cls-1" d="M153.31,81.01h24.64v4.44h-19.76v14.44h19.42v4.44h-19.42v19.25h-4.88v-42.58Z"/><path class="cls-1" d="M183.04,102.3c0-12.16,7.44-21.91,18.28-21.91s18.28,9.75,18.28,21.91-7.44,21.91-18.28,21.91-18.28-9.75-18.28-21.91Zm31.28,0c0-10.18-5.22-17.46-13-17.46s-13,7.28-13,17.46,5.22,17.46,13,17.46,13-7.28,13-17.46Z"/><path class="cls-1" d="M250.92,81.01h4.88v25.61c0,12.09-5.39,17.59-14.48,17.59s-14.48-5.49-14.48-17.59v-25.61h4.88v26.53c0,7.41,2.78,12.22,9.6,12.22s9.59-4.81,9.59-12.22v-26.53Z"/><path class="cls-1" d="M296.06,123.59h-10.05l-15.73-42.33v42.33h-4.88v-42.58h10.05l15.73,42.33v-42.33h4.88v42.58Z"/><path class="cls-1" d="M305.95,81.01h11.3c12.49,0,19.99,8.76,19.99,21.29s-7.5,21.29-19.99,21.29h-11.3v-42.58Zm4.88,4.44v33.69h5.85c9.65,0,15.27-5.92,15.27-16.85s-5.62-16.85-15.27-16.85h-5.85Z"/><path class="cls-1" d="M352.22,81.01h10.11l13.23,42.58h-5.17l-3.97-12.83h-18.28l-3.97,12.83h-5.17l13.23-42.58Zm-2.72,25.3h15.56l-7.78-25.05-7.78,25.05Z"/><path class="cls-1" d="M372.64,81.01h31.23v4.44h-13.17v38.13h-4.88v-38.13h-13.17v-4.44Z"/><path class="cls-1" d="M409.38,123.59v-42.58h4.88v42.58h-4.88Z"/><path class="cls-1" d="M421.92,102.3c0-12.16,7.44-21.91,18.28-21.91s18.28,9.75,18.28,21.91-7.44,21.91-18.28,21.91-18.28-9.75-18.28-21.91Zm31.28,0c0-10.18-5.22-17.46-13-17.46s-13,7.28-13,17.46,5.22,17.46,13,17.46,13-7.28,13-17.46Z"/><path class="cls-1" d="M496.8,123.59h-10.05l-15.73-42.33v42.33h-4.88v-42.58h10.05l15.73,42.33v-42.33h4.88v42.58Z"/></g><g><path class="cls-1" d="M4.58,69.91v1.64c0,29.31,23.84,53.15,53.15,53.15s53.15-23.84,53.15-53.15v-1.64H4.58Zm51.51,28.17v23.14c-6.11-1.36-13.52-10-18.11-23.14h18.11Zm-19.16-3.28c-1.89-6.39-3.1-13.68-3.23-21.61h22.39v21.61h-19.16Zm22.43,26.4v-23.12h17.88c-1.16,3.21-2.52,6.28-4.08,9.15-4.17,7.65-9.41,12.88-13.8,13.97Zm0-26.4v-21.61h22.39c-.14,7.44-1.31,14.8-3.4,21.61h-18.99Zm-28.94-21.61c.13,7.74,1.28,15.06,3.15,21.61H13.64c-3.44-6.49-5.49-13.83-5.75-21.61H30.43Zm-14.9,24.89h19.07c3.33,9.97,8.29,17.89,13.58,22.42-13.72-2.67-25.44-10.98-32.65-22.42Zm51.54,22.46c5.28-4.55,10.26-12.54,13.65-22.46h19.24c-7.25,11.5-19.07,19.83-32.88,22.46Zm34.77-25.74h-20.09c1.94-6.61,3.14-13.95,3.29-21.61h22.54c-.25,7.78-2.31,15.12-5.75,21.61Z"/><polygon class="cls-2" points="68.69 69.91 109.19 55.04 106.48 47.66 69.26 61.33 95.9 25.6 89.6 20.91 61.87 58.1 61.87 7.71 54.01 7.71 54.01 58.74 26.29 20.93 19.95 25.58 46.01 61.11 8.91 47.48 6.21 54.86 47.19 69.91 68.69 69.91"/></g></svg>