<?xml version="1.0" encoding="UTF-8"?><svg id="Layer_2" xmlns="http://www.w3.org/2000/svg" viewBox="0 0 106.3 110.09"><defs><style>.cls-1{fill:#06f;}</style></defs><g id="Livello_1"><g><path d="M0,55.3v1.64c0,29.31,23.84,53.15,53.15,53.15s53.15-23.84,53.15-53.15v-1.64H0Zm51.51,28.17v23.14c-6.11-1.36-13.52-10-18.11-23.14h18.11Zm-19.16-3.28c-1.89-6.39-3.1-13.68-3.23-21.61h22.39v21.61h-19.16Zm22.43,26.4v-23.12h17.88c-1.16,3.21-2.52,6.28-4.08,9.15-4.17,7.65-9.41,12.88-13.8,13.97Zm0-26.4v-21.61h22.39c-.14,7.44-1.31,14.8-3.4,21.61h-18.99Zm-28.94-21.61c.13,7.74,1.28,15.06,3.15,21.61H9.05c-3.44-6.49-5.49-13.83-5.75-21.61H25.84Zm-14.9,24.89H30.02c3.33,9.97,8.29,17.89,13.58,22.42-13.72-2.67-25.44-10.98-32.65-22.42Zm51.54,22.46c5.28-4.55,10.26-12.54,13.64-22.46h19.24c-7.25,11.5-19.07,19.83-32.88,22.46Zm34.77-25.74h-20.09c1.94-6.61,3.14-13.95,3.29-21.61h22.54c-.25,7.78-2.31,15.12-5.75,21.61Z"/><polygon class="cls-1" points="90.86 38.01 52.85 0 14.95 37.91 20.5 43.46 49.06 14.9 49.06 55.3 56.92 55.3 56.92 15.18 85.3 43.56 90.86 38.01"/></g></g></svg>
