<?xml version="1.0" encoding="UTF-8"?>
<svg width="192px" height="223px" viewBox="0 0 192 223" version="1.1" xmlns="http://www.w3.org/2000/svg" xmlns:xlink="http://www.w3.org/1999/xlink">
    <title>GWF-not-hosted-green-icon</title>
    <g id="Page-1" stroke="none" stroke-width="1" fill="none" fill-rule="evenodd">
        <g id="GWF-not-hosted-green-icon" transform="translate(0.700616, 0.700000)" fill-rule="nonzero">
            <g id="Group" transform="translate(-0.000000, 0.000000)">
                <polygon id="Path" fill="#FFA700" points="111.599384 36.7 96.3993837 17.5 105.799384 -2.66453526e-15"></polygon>
                <g transform="translate(-0.000000, 62.858726)">
                    <path d="M27.9594154,138.423951 L29.6570043,140.12154 C60.1075053,170.572041 109.671039,170.572041 140.12154,140.12154 C170.572041,109.671039 170.572041,60.1075056 140.12154,29.6570045 L138.423951,27.9594156 L27.9594154,138.423951 Z" id="Path" fill="#FFFFFF" transform="translate(95.459416, 95.459416) rotate(45.000000) translate(-95.459416, -95.459416) "></path>
                    <path d="M95.5993837,159.041274 C50.8993837,159.041274 14.4993837,122.641274 14.4993837,77.9412735 L14.4993837,75.4412735 L176.699384,75.4412735 L176.699384,77.9412735 C176.699384,122.641274 140.299384,159.041274 95.5993837,159.041274 Z M19.4993837,80.4412735 C20.7993837,121.241274 54.3993837,154.041274 95.5993837,154.041274 C136.799384,154.041274 170.299384,121.241274 171.699384,80.4412735 L19.4993837,80.4412735 Z" id="Shape" fill="#000000"></path>
                    <path d="M95.5993837,159.041274 C76.6993837,159.041274 53.8993837,123.041274 53.8993837,78.2412735 L58.8993837,78.2412735 C58.8993837,122.241274 80.7993837,154.041274 95.5993837,154.041274 C102.699384,154.041274 111.999384,145.541274 119.199384,132.341274 C127.699384,116.841274 132.299384,97.5412735 132.299384,78.0412735 L137.299384,78.0412735 C137.299384,121.641274 114.399384,159.041274 95.5993837,159.041274 Z" id="Path" fill="#000000"></path>
                    <rect id="Rectangle" fill="#000000" x="26.5993837" y="113.441274" width="137.8" height="5"></rect>
                    <rect id="Rectangle" fill="#000000" x="93.0993837" y="78.3412735" width="5" height="78.2"></rect>
                </g>
            </g>
            <path d="M37.8993837,138.3 C35.8993837,131.3 34.4993837,123.8 34.4993837,117 C34.4993837,106.2 39.1993837,97.6 42.9993837,92.5 L51.8993837,115.6 L52.0993837,116 C56.2993837,122.9 65.3993837,125.2 72.2993837,121.1 L74.4993837,119.8 L77.4993837,78.5 L82.8993837,84.6 C85.1993837,87.3 88.9993837,88.1 92.1993837,86.7 C95.3993837,85.3 97.3993837,82 97.0993837,78.5 C96.1993837,68.5 94.7993837,55.3 92.7993837,44.9 L99.4993837,51.7 C107.699384,67.6 112.999384,84.7 115.199384,102.5 L116.299384,111.1 L122.999384,105.6 C128.899384,100.8 132.799384,94 134.099384,86.6 L136.799384,71.2 L147.099384,85.5 C148.499384,88.4 160.299384,113.9 154.099384,138.4 L163.899384,138.4 C165.999384,128.5 165.999384,117.6 163.799384,106.1 C160.999384,91.6 155.699384,81.3 155.499384,80.9 L131.399384,47.2 L124.699384,85 C124.399384,86.9 123.799384,88.8 122.999384,90.5 C119.999384,75.3 114.899384,60.6 107.699384,46.7 L107.299384,46 L75.7993837,14.2 L82.3993837,41.7 C84.5993837,51 86.2993837,65.3 87.1993837,75.1 L69.6993837,55.1 L65.2993837,113.5 C63.3993837,113.7 61.4993837,112.9 60.3993837,111.3 L46.5993837,75.3 L41.4993837,79.7 C40.7993837,80.3 24.8993837,94.3 24.8993837,116.9 C24.8993837,123.9 26.1993837,131.3 27.9993837,138.2 L37.8993837,138.2 L37.8993837,138.3 Z" id="Path" fill="#FFA700"></path>
        </g>
    </g>
</svg>