<?xml version="1.0" encoding="UTF-8"?>
<svg width="106px" height="122px" viewBox="0 0 106 122" version="1.1" xmlns="http://www.w3.org/2000/svg" xmlns:xlink="http://www.w3.org/1999/xlink">
    <title>Group</title>
    <g id="Page-1" stroke="none" stroke-width="1" fill="none" fill-rule="evenodd">
        <g id="GWF-Logo04-Green-copy-4" transform="translate(0.849532, 0.620000)" fill-rule="nonzero">
            <g id="Group" transform="translate(0.000000, -0.000000)">
                <path d="M14.7304676,103.39 L15.8504676,104.51 C35.9404676,124.6 68.6404676,124.6 88.7304676,104.51 C108.820468,84.42 108.820468,51.72 88.7304676,31.63 L87.6104676,30.51 L14.7304676,103.39 Z" id="Path" fill="#FFFFFF"></path>
                <path d="M12.9404676,104.17 L14.1004676,105.33 C34.8204676,126.05 68.5404676,126.05 89.2704676,105.33 C109.990468,84.61 109.990468,50.89 89.2704676,30.16 L88.1104676,29 L12.9404676,104.17 Z M69.2804676,87.67 L85.6404676,104.03 C80.3604676,107.39 69.0004676,106.52 56.4704676,100.47 L69.2704676,87.67 L69.2804676,87.67 Z M53.4204676,98.9 C47.5604676,95.72 41.5504676,91.42 35.8504676,85.9 L51.6804676,70.07 L66.9604676,85.35 L53.4104676,98.9 L53.4204676,98.9 Z M87.9504676,101.7 L71.6004676,85.35 L84.2504676,72.7 C85.7004676,75.79 86.9104676,78.92 87.8304676,82.05 C90.2904676,90.41 90.2904676,97.81 87.9504676,101.69 L87.9504676,101.7 Z M69.2804676,83.03 L54.0004676,67.75 L69.8304676,51.92 C74.9904676,57.28 79.3704676,63.31 82.7104676,69.61 L69.2904676,83.03 L69.2804676,83.03 Z M33.5304676,88.22 C39.0904676,93.6 45.0804676,97.96 51.0404676,101.28 L36.9404676,115.38 C29.9204676,113.22 23.2804676,109.49 17.5904676,104.16 L33.5304676,88.22 Z M40.5904676,116.36 L54.0804676,102.87 C63.4804676,107.56 72.5904676,109.66 79.5304676,109.12 C67.9404676,116.93 53.7804676,119.34 40.5904676,116.36 Z M92.9104676,95.8 C93.4204676,88.85 91.3004676,79.67 86.6804676,70.27 L100.280468,56.67 C103.280468,69.93 100.820468,84.17 92.9104676,95.8 L92.9104676,95.8 Z M99.3004676,53.02 L85.1004676,67.22 C81.7904676,61.17 77.4604676,55.13 72.1504676,49.61 L88.0904676,33.67 C93.4204676,39.35 97.1504676,45.99 99.3104676,53.02 L99.3004676,53.02 Z" id="Shape" fill="#000000"></path>
                <g transform="translate(0.000000, -0.000000)" fill="#00FF00" id="Path">
                    <path d="M18.9404676,98.45 C3.84046762,82.29 4.15046762,56.86 19.9104676,41.11 C30.6904676,30.33 46.4004676,26.5 60.6904676,30.68 L39.3004676,43.68 L43.3804676,50.39 L75.7504676,30.72 L54.0404676,2.66453526e-15 L47.6204676,4.54 L60.2804676,22.46 C43.9904676,18.66 26.5404676,23.38 14.3604676,35.56 C-4.45953238,54.37 -4.77953238,84.78 13.3904676,104.01 L18.9504676,98.45 L18.9404676,98.45 Z"></path>
                    <path d="M14.0904676,104.75 C14.1804676,104.84 14.2604676,104.94 14.3604676,105.03 L14.3604676,105.03 L14.0904676,104.75 Z"></path>
                </g>
            </g>
        </g>
    </g>
</svg>