<svg xmlns="http://www.w3.org/2000/svg" width="494" height="118"><g fill="none" fill-rule="nonzero"><g fill="#000"><path d="M177.11 34.64h-13.29V30.2h18.28v21.91h-4.66v-9.07h-.11c-1.59 4.81-5.56 9.69-12.38 9.69-10.84 0-17.83-9.75-17.83-21.91s6.7-21.91 18.06-21.91c9.82 0 15.5 6.97 16.52 14.32h-5.05c-.79-5.06-4.2-9.87-11.13-9.87-8.52 0-13.12 7.28-13.12 17.46s4.77 17.46 13.29 17.46c7.49 0 11.41-5.37 11.41-11.85v-1.79h.01ZM190.94 9.52h12.15c9.48 0 15.05 4.38 15.05 12.28 0 6.05-3.24 10.06-9.03 11.6l9.77 18.7h-5.62l-9.37-17.96h-8.06V52.1h-4.88V9.52h-.01Zm4.88 4.44V29.7h7.84c6.08 0 9.2-2.78 9.2-7.9 0-5.12-3.12-7.84-9.2-7.84h-7.84ZM226.03 9.52h22.54v4.44h-17.66v14.07h17.15v4.44h-17.15v15.18h18.11v4.44h-23V9.52zM256.35 9.52h22.54v4.44h-17.66v14.07h17.15v4.44h-17.15v15.18h18.11v4.44h-23V9.52zM317.33 52.1h-10.05L291.55 9.77V52.1h-4.88V9.52h10.05l15.73 42.33V9.52h4.88zM374.1 9.52l7.44 42.33 9.2-42.33h4.83l-9.25 42.58h-9.54l-7.44-42.33-7.44 42.33h-9.54l-9.25-42.58h4.83l9.2 42.33 7.44-42.33h9.54zM401.66 9.52h22.54v4.44h-17.66v14.07h17.15v4.44h-17.15v15.18h18.11v4.44h-23V9.52zM450.44 29.89v.12c6.36.56 8.91 4.57 8.91 9.93 0 7.78-4.54 12.16-14.02 12.16h-13.34V9.52h11.24c9.48 0 14.25 3.58 14.25 11.29 0 5-3.07 8.08-7.04 9.07v.01Zm-13.57-15.92v13.88H443c6.08 0 9.2-2.34 9.2-7.03s-2.33-6.85-8.4-6.85h-6.93Zm0 18.33v15.37h9.03c6.08 0 8.18-2.9 8.18-7.71 0-4.81-3.12-7.65-9.2-7.65h-8.01v-.01ZM149.52 74.01h24.64v4.44H154.4v14.44h19.42v4.44H154.4v19.25h-4.88V74zM179.25 95.3c0-12.16 7.44-21.91 18.28-21.91s18.28 9.75 18.28 21.91-7.44 21.91-18.28 21.91-18.28-9.75-18.28-21.91Zm31.28 0c0-10.18-5.22-17.46-13-17.46s-13 7.28-13 17.46 5.22 17.46 13 17.46 13-7.28 13-17.46ZM247.13 74.01h4.88v25.61c0 12.09-5.39 17.59-14.48 17.59s-14.48-5.49-14.48-17.59V74.01h4.88v26.53c0 7.41 2.78 12.22 9.6 12.22s9.6-4.81 9.6-12.22V74.01ZM292.27 116.59h-10.05l-15.73-42.33v42.33h-4.88V74.01h10.05l15.73 42.33V74.01h4.88zM302.16 74.01h11.3c12.49 0 19.99 8.76 19.99 21.29s-7.49 21.29-19.99 21.29h-11.3V74.01Zm4.88 4.44v33.69h5.85c9.65 0 15.27-5.92 15.27-16.85 0-10.93-5.62-16.85-15.27-16.85h-5.85v.01ZM348.43 74.01h10.11l13.23 42.58h-5.17l-3.97-12.83h-18.28l-3.97 12.83h-5.17l13.23-42.58h-.01Zm-2.73 25.3h15.56l-7.78-25.05-7.78 25.05ZM368.85 74.01h31.23v4.44h-13.17v38.13h-4.88V78.45h-13.17v-4.44zM405.58 116.59V74.01h4.88v42.58zM418.12 95.3c0-12.16 7.44-21.91 18.28-21.91s18.28 9.75 18.28 21.91-7.44 21.91-18.28 21.91-18.28-9.75-18.28-21.91Zm31.28 0c0-10.18-5.22-17.46-13-17.46s-13 7.28-13 17.46 5.22 17.46 13 17.46 13-7.28 13-17.46ZM493.01 116.59h-10.05l-15.73-42.33v42.33h-4.88V74.01h10.05l15.73 42.33V74.01h4.88z"/></g><path fill="#FFF" d="M2.62 63.85v1.59c0 28.42 23.12 51.53 51.53 51.53s51.53-23.12 51.53-51.53v-1.59H2.62Z"/><path fill="#000" d="M.79 62.91v1.64c0 29.31 23.84 53.15 53.15 53.15s53.15-23.84 53.15-53.15v-1.64H.79ZM52.3 91.08v23.14c-6.11-1.36-13.52-10-18.11-23.14H52.3ZM33.14 87.8c-1.89-6.39-3.1-13.68-3.23-21.61H52.3V87.8H33.14Zm22.43 26.4V91.08h17.88c-1.16 3.21-2.52 6.28-4.08 9.15-4.17 7.65-9.41 12.88-13.8 13.97Zm0-26.4V66.19h22.39c-.14 7.44-1.31 14.8-3.4 21.61H55.57ZM26.63 66.19c.13 7.74 1.28 15.06 3.15 21.61H9.84a49.585 49.585 0 0 1-5.75-21.61h22.55-.01Zm-14.9 24.89H30.8c3.33 9.97 8.29 17.89 13.58 22.42-13.72-2.67-25.44-10.98-32.65-22.42Zm51.54 22.46c5.28-4.55 10.26-12.54 13.65-22.46h19.24c-7.25 11.5-19.07 19.83-32.88 22.46h-.01ZM98.04 87.8H77.95c1.94-6.61 3.14-13.95 3.29-21.61h22.54a49.448 49.448 0 0 1-5.75 21.61h.01Z"/><path fill="#0F0" d="m64.9 62.91 40.5-14.87-2.71-7.38-37.22 13.67L92.11 18.6l-6.3-4.69L58.08 51.1V.71h-7.86v51.03L22.5 13.93l-6.34 4.65 26.06 35.53-37.1-13.63-2.71 7.38 40.98 15.05z"/></g></svg>